<?xml version="1.0" encoding="utf-8"?>
<!-- Generator: Adobe Illustrator 26.3.1, SVG Export Plug-In . SVG Version: 6.00 Build 0)  -->
<svg version="1.1" id="Vrstva_1" xmlns="http://www.w3.org/2000/svg" xmlns:xlink="http://www.w3.org/1999/xlink" x="0px" y="0px"
	 viewBox="0 0 744 744" style="enable-background:new 0 0 744 744;" xml:space="preserve">
<style type="text/css">
	.st0{clip-path:url(#SVGID_00000162350363787568280460000009401121986979238569_);fill:#E5BF1C;}
	.st1{clip-path:url(#SVGID_00000162350363787568280460000009401121986979238569_);fill:#006BCC;}
	.st2{clip-path:url(#SVGID_00000162350363787568280460000009401121986979238569_);fill:#E04221;}
</style>
<g>
	<defs>
		<rect id="SVGID_1_" width="744" height="744"/>
	</defs>
	<clipPath id="SVGID_00000080202545621388860560000014315699092360311688_">
		<use xlink:href="#SVGID_1_"  style="overflow:visible;"/>
	</clipPath>
	<path style="clip-path:url(#SVGID_00000080202545621388860560000014315699092360311688_);fill:#E5BF1C;" d="M324.5,142.9
		c-18.9,15.2-47.9,45.4-61.8,61.4c-8.4,9.7-21.6,24.5-18.7,34.1c2.2,7.3,13.8,7.6,25.3,0c5.8-3.8,19.4-13.6,32.3-25.6
		c18.3-17,21.9-21.6,22.9-22.7c1.7-1.8,2.7-0.7,2.8,0.8c0.2,3.2-0.5,16.3-0.4,24.6c0.1,8.9,2.1,22,14.1,26.8
		c11.9,4.8,29.3-5.3,50.5-22.1c6.3-5,8.2-6.7,11.9-9.5c4.4-3.3,4,0.2,3.9,3.7c-0.3,6.2,0.5,16.2,8.8,21c8.9,5.2,25.1,5.5,52.3-12.8
		c22.7-15.2,37.1-23,49.9-38.3c5.3-6.3,11.2-22.9-2.9-30.1c-9.1-4.7-23.6,0.9-34.3,5.8c-5.9,2.7-14.3,7.6-19.7,11.1
		c-2,1.3-5.1,3.3-5.9,0.9c-0.3-0.9,0.3-5.5,0-9.5c-0.6-7.8-2.9-17.6-14.2-21.4c-8.8-2.9-18.1,0.5-25.2,4.9
		c-6.9,4.3-32.4,25.6-41.4,33c-4,3.3-9.4,6.7-10.6-5.6c-1.3-13.8-3.3-26.9-9.4-33C349.7,135.5,337.3,132.6,324.5,142.9"/>
	<path style="clip-path:url(#SVGID_00000080202545621388860560000014315699092360311688_);fill:#006BCC;" d="M425.2,293.9
		c-1-9.4-1.9-23.9-14.6-25.1c-5.5-0.5-19.2,2-25.4,25.3c-5.7,21.5-3.3,43.8-0.5,57.1c3.7,18.2,14.5,51.4,42.5,59.6
		c30,8.9,67.6-16.4,88.8-74.3c17.8-48.6,8.7-58.5,1.1-60.1c-9.6-2.1-19.1,16.2-37.3,33.9c-17.8,17.2-27.2,29.5-41.2,22.8
		C428.2,328.3,426.7,307.7,425.2,293.9"/>
	<path style="clip-path:url(#SVGID_00000080202545621388860560000014315699092360311688_);fill:#006BCC;" d="M324.9,426.3
		c5.1-23.6,16-69.8,19.5-88.5c3-16.4,10.4-50.7-1.6-57c-9.5-5-25.4,4.4-37.6,22.1c-12.2,17.6-36.7,61.2-46.4,131
		c-9.7,69.8,28.4,68.7,45.5,68.1c29.9-1.1,50.5-10.1,70.8-19.4c45.1-20.6,38.7-44,24.1-48.8c-18.4-6-40.4-4.2-59.8-3.5
		C327.5,430.5,323.7,431.6,324.9,426.3"/>
	<path style="clip-path:url(#SVGID_00000080202545621388860560000014315699092360311688_);fill:#E04221;" d="M219.5,529.6
		c1.6,15.1,9,30.5,24.3,47c19.8,21.4,38.1,28.6,66.3,25.9c30.1-2.9,60.2-28.7,76-53.4c13.5-21.1,13.3-37.1,6.4-39.5
		c-7.9-2.7-16.1,7.1-31.4,18.8c-19.2,14.7-45.5,27.5-72,22.2c-33.4-6.7-45.6-37.7-60-37.6C220.5,512.9,218.4,519.4,219.5,529.6"/>
</g>
</svg>
